<?xml version="1.0" encoding="UTF-8"?>
<svg xmlns="http://www.w3.org/2000/svg" viewBox="0 0 1025 1171" width="1025" height="1171">
<path d="M536.03 1170.83C520.04 1170.83 504.06 1170.83 488.08 1170.83C482.63 1168.91 472.69 1169.43 466.5 1168.99C454.53 1168.15 442.47 1166.61 430.63 1164.69C391.33 1158.31 352.19 1147.61 315.5 1132.01C204.88 1085.01 116.27 1003.97 59.34 898.2C47.64 876.45 37.33 853.62 29.35 830.23C18.58 798.69 10.07 766.39 5.38 733.37C3.63 721.04 2.69 708.65 1.44 696.28C0.94 691.3 1.68 685.51 0.17 680.86C0.17 666.28 0.17 651.69 0.17 637.11C2.13 630.91 1.54 619.52 2.16 612.5C3.67 595.46 5.95 578.42 9.29 561.65C20.79 504.03 41.41 449.33 71.02 398.56C112.17 328 172.31 266.11 242.13 223.62C261.68 211.73 281.76 200.43 302.78 191.32C310.02 188.18 317.26 185 324.63 182.18C328.96 180.53 334.42 179.35 338.22 176.68C343.76 172.78 348.61 166.68 353.32 161.82C361.69 153.19 370.25 144.74 378.77 136.28C409.72 105.56 440.41 74.58 471.32 43.82C479.84 35.35 488.42 26.91 496.82 18.32C502.5 12.5 508.13 6.05 514.5 1.01C519.72 3.79 524.41 7.83 529.14 11.39C538.84 18.67 548.29 26.2 557.65 33.9C589.9 60.45 619.9 89.82 646.4 122.14C655.45 133.17 664.11 144.56 672.31 156.23C675.66 160.99 682.37 173.23 685.98 176.52C688.1 178.44 691.75 179.14 694.38 180.15C701.09 182.72 707.69 185.43 714.29 188.23C733.08 196.18 751.17 205.5 768.88 215.61C820.19 244.88 866.17 284.17 904.19 329.28C948.8 382.21 982.69 444.46 1002.64 510.77C1059.98 701.37 1000.4 913.63 849.7 1044.18C787.48 1098.08 713.5 1137.26 633.38 1156.74C612.4 1161.84 590.96 1165.58 569.5 1167.87C562.19 1168.65 554.83 1169.4 547.5 1169.86C543.77 1170.1 539.5 1169.63 536.03 1170.83ZM365.85 1059.8C370.69 1061.91 376.04 1063 381.11 1064.45C400.28 1069.93 419.78 1074.17 439.49 1077.14C494.61 1085.46 551.95 1084.47 606.57 1073.25C624.11 1069.64 642.2 1066.05 659.01 1059.71C676.11 1055.52 693.14 1047.89 709.13 1040.61C737.88 1027.53 765.52 1012.17 791.12 993.6C890.93 921.21 959.9 814.6 979.59 692.25C985.21 657.34 986.26 621.73 983.86 586.5C974.1 443.28 892.83 313.87 773.66 235.86C745.15 217.2 709.12 197.58 676.5 187.68C622.5 242.75 568.5 297.83 514.5 352.91C510.29 347.78 507.08 341.68 503.34 336.19C495.04 323.99 486.24 312.08 476.89 300.67C452.25 270.6 424.51 243.73 394.63 218.91C380.91 207.5 366.72 195.77 351.5 186.39C336.43 190.27 321.71 197.62 307.65 204.17C276.19 218.82 246.26 237.06 218.87 258.39C153.92 308.96 101.84 376.08 71.38 452.81C53.05 498.98 42.4 547.91 39.85 597.5C39.2 610.11 38.56 622.84 39.29 635.48C41.27 669.94 45.63 703.82 54.34 737.27C80.52 837.85 144.5 930.08 228.95 990.53C260.51 1013.11 294.2 1032.93 330.41 1047.14C341.84 1051.63 353.78 1057.35 365.85 1059.8Z" fill="#d70040" fill-rule="evenodd" stroke="#d70040" stroke-width="0.25" stroke-linejoin="round"/>
<path d="M659.01 1059.71C642.2 1066.05 624.11 1069.64 606.57 1073.25C551.95 1084.47 494.61 1085.46 439.49 1077.14C419.78 1074.17 400.28 1069.93 381.11 1064.45C376.04 1063 370.69 1061.91 365.85 1059.8C365.83 888.7 365.82 717.6 365.8 546.5C463.37 503.4 560.93 460.31 658.5 417.21C658.67 631.38 658.84 845.55 659.01 1059.71Z" fill="#088f8f" fill-rule="evenodd" stroke="#088f8f" stroke-width="0.25" stroke-linejoin="round"/>
</svg>